<svg xmlns="http://www.w3.org/2000/svg" width="1200" height="620" viewBox="0 0 1200 620" font-family="system-ui, -apple-system, Segoe UI, Helvetica, Arial, sans-serif" font-size="12">
<rect x="0" y="0" width="1200" height="620" fill="#000000"/>
<rect x="0.5" y="0.5" width="1199" height="619" fill="none" stroke="#262626"/>
<text x="32" y="40" font-size="20" font-weight="600" fill="#FFFFFF">Build time vs files</text>
<text x="1168" y="40" font-size="11" fill="#8A8983" text-anchor="end">greplost bench · bench/RESULTS.md</text>
<line x1="84" y1="516" x2="1000" y2="516" stroke="#262626" stroke-dasharray="2 4"/>
<text x="74" y="520" fill="#8A8983" font-size="11" text-anchor="end">0</text>
<line x1="84" y1="438" x2="1000" y2="438" stroke="#262626" stroke-dasharray="2 4"/>
<text x="74" y="442" fill="#8A8983" font-size="11" text-anchor="end">50</text>
<line x1="84" y1="360" x2="1000" y2="360" stroke="#262626" stroke-dasharray="2 4"/>
<text x="74" y="364" fill="#8A8983" font-size="11" text-anchor="end">100</text>
<line x1="84" y1="282" x2="1000" y2="282" stroke="#262626" stroke-dasharray="2 4"/>
<text x="74" y="286" fill="#8A8983" font-size="11" text-anchor="end">150</text>
<line x1="84" y1="204" x2="1000" y2="204" stroke="#262626" stroke-dasharray="2 4"/>
<text x="74" y="208" fill="#8A8983" font-size="11" text-anchor="end">200</text>
<line x1="84" y1="126" x2="1000" y2="126" stroke="#262626" stroke-dasharray="2 4"/>
<text x="74" y="130" fill="#8A8983" font-size="11" text-anchor="end">250</text>
<line x1="84" y1="516" x2="1000" y2="516" stroke="#3A3A3A"/>
<text x="24" y="321" fill="#C3C2B7" font-size="11" text-anchor="middle" transform="rotate(-90 24 321)">ms</text>
<text x="542" y="586" fill="#C3C2B7" font-size="11" text-anchor="middle">files</text>
<polyline points="84,305.4 185.78,372.48 287.56,358.44 389.33,389.64 491.11,513.17 592.89,199.32 694.67,311.64 796.44,291.36 898.22,319.44 1000,512.09" fill="none" stroke="#0fa976" stroke-width="2" stroke-linejoin="round" stroke-linecap="round"/>
<circle cx="84" cy="305.4" r="4" fill="#0fa976" stroke="#000000" stroke-width="2"/>
<circle cx="1000" cy="512.09" r="4" fill="#0fa976" stroke="#000000" stroke-width="2"/>
<text x="1012" y="516.09" fill="#FFFFFF" font-size="12">p50</text>
<text x="84" y="538" fill="#C3C2B7" font-size="12" text-anchor="middle">58</text>
<text x="185.78" y="538" fill="#C3C2B7" font-size="12" text-anchor="middle">58</text>
<text x="287.56" y="538" fill="#C3C2B7" font-size="12" text-anchor="middle">58</text>
<text x="389.33" y="538" fill="#C3C2B7" font-size="12" text-anchor="middle">58</text>
<text x="491.11" y="538" fill="#C3C2B7" font-size="12" text-anchor="middle">58</text>
<text x="592.89" y="538" fill="#C3C2B7" font-size="12" text-anchor="middle">148</text>
<text x="694.67" y="538" fill="#C3C2B7" font-size="12" text-anchor="middle">148</text>
<text x="796.44" y="538" fill="#C3C2B7" font-size="12" text-anchor="middle">148</text>
<text x="898.22" y="538" fill="#C3C2B7" font-size="12" text-anchor="middle">148</text>
<text x="1000" y="538" fill="#C3C2B7" font-size="12" text-anchor="middle">148</text>
</svg>
