<svg xmlns="http://www.w3.org/2000/svg" width="720" height="393" viewBox="0 0 720 393" font-family="sans-serif" font-size="12">
<rect x="0" y="0" width="720" height="393" fill="#ffffff"/>
<text x="20" y="26" font-size="15" font-weight="bold" fill="#111827">X2 artifact F1 with each tool's own refresh</text>
<rect x="20" y="38" width="10" height="10" fill="#1d4ed8"/>
<text x="35" y="47" fill="#6b7280">greplost</text>
<rect x="106" y="38" width="10" height="10" fill="#ea580c"/>
<text x="121" y="47" fill="#6b7280">graphify</text>
<rect x="192" y="38" width="10" height="10" fill="#0f766e"/>
<text x="207" y="47" fill="#6b7280">crg</text>
<line x1="64" y1="322" x2="700" y2="322" stroke="#e5e7eb"/>
<text x="56" y="326" fill="#6b7280" font-size="11" text-anchor="end">0</text>
<line x1="64" y1="256" x2="700" y2="256" stroke="#e5e7eb"/>
<text x="56" y="260" fill="#6b7280" font-size="11" text-anchor="end">0.25</text>
<line x1="64" y1="190" x2="700" y2="190" stroke="#e5e7eb"/>
<text x="56" y="194" fill="#6b7280" font-size="11" text-anchor="end">0.5</text>
<line x1="64" y1="124" x2="700" y2="124" stroke="#e5e7eb"/>
<text x="56" y="128" fill="#6b7280" font-size="11" text-anchor="end">0.75</text>
<line x1="64" y1="58" x2="700" y2="58" stroke="#e5e7eb"/>
<text x="56" y="62" fill="#6b7280" font-size="11" text-anchor="end">1</text>
<line x1="64" y1="58" x2="64" y2="322" stroke="#9ca3af"/>
<line x1="64" y1="322" x2="700" y2="322" stroke="#9ca3af"/>
<text x="18" y="190" fill="#6b7280" font-size="11" text-anchor="middle" transform="rotate(-90 18 190)">F1 vs compiler truth</text>
<text x="382" y="356" fill="#6b7280" font-size="11" text-anchor="middle">commit index</text>
<text x="20" y="372" fill="#6b7280" font-size="10">Each tool's own documented refresh was invoked after every commit, so this is a comparison of incremental accuracy, not a decay</text>
<text x="20" y="385" fill="#6b7280" font-size="10">curve. Omitted (not run here): ua.</text>
<polyline points="64,58 154.86,58 245.71,58 336.57,58 427.43,58 518.29,58 609.14,58 700,58" fill="none" stroke="#1d4ed8" stroke-width="2"/>
<polyline points="64,193.56 154.86,174.66 245.71,168.01 336.57,162.6 427.43,164.52 518.29,166.19 609.14,161.99 700,168.96" fill="none" stroke="#ea580c" stroke-width="2"/>
<polyline points="64,102.01 154.86,95.73 245.71,91 336.57,87.33 427.43,84.4 518.29,82 609.14,79.99 700,78.3" fill="none" stroke="#0f766e" stroke-width="2"/>
<text x="64" y="338" fill="#6b7280" font-size="11" text-anchor="middle">3</text>
<text x="154.86" y="338" fill="#6b7280" font-size="11" text-anchor="middle">6</text>
<text x="245.71" y="338" fill="#6b7280" font-size="11" text-anchor="middle">9</text>
<text x="336.57" y="338" fill="#6b7280" font-size="11" text-anchor="middle">12</text>
<text x="427.43" y="338" fill="#6b7280" font-size="11" text-anchor="middle">15</text>
<text x="518.29" y="338" fill="#6b7280" font-size="11" text-anchor="middle">18</text>
<text x="609.14" y="338" fill="#6b7280" font-size="11" text-anchor="middle">21</text>
<text x="700" y="338" fill="#6b7280" font-size="11" text-anchor="middle">24</text>
</svg>
